<svg xmlns="http://www.w3.org/2000/svg" width="42" height="42" viewBox="0 0 42 42" fill="none">
  <circle cx="21" cy="21" r="21" fill="white"/>
  <path d="M15.6545 18.7727L21.0636 13.3L26.4727 18.7091L29.6545 15.5273L21.0636 7L12.4727 15.5909L15.6545 18.7727Z" fill="#F3BA2F"/>
  <path d="M13.3636 21L10.1818 17.8182L7 21L10.1818 24.1818L13.3636 21Z" fill="#F3BA2F"/>
  <path d="M15.6545 23.2273L21.0636 28.6364L26.4727 23.2273L29.6545 26.4091L21.0636 35L12.4727 26.4091L15.6545 23.2273Z" fill="#F3BA2F"/>
  <path d="M31.882 24.1818L35.0638 21L31.882 17.8182L28.7002 21L31.882 24.1818Z" fill="#F3BA2F"/>
  <path d="M24.2455 21L21.0637 17.8182L18.7091 20.1727L18.4546 20.4273L17.8818 21L21.0637 24.1818L24.2455 21Z" fill="#F3BA2F"/>
</svg>