<svg xmlns="http://www.w3.org/2000/svg" width="42" height="42" viewBox="0 0 42 42" fill="none">
  <path d="M20.9999 42.0006C9.44993 42.0006 0 32.5506 0 20.8957C0.104999 9.3458 9.44993 -0.104133 21.1049 0.000866619C32.6548 0.105866 41.9997 9.4508 41.9997 21.2107C41.8947 32.6556 32.5498 42.0006 20.9999 42.0006Z" fill="#0090FF"/>
  <path d="M22.6154 18.7693L22.0615 21.8171L27.3231 22.5791L26.9538 24.0078L21.7846 23.2458C21.4154 24.484 21.2308 25.8175 20.7692 26.9604C20.3077 28.2938 19.8462 29.6273 19.2923 30.8655C18.5538 32.4846 17.2615 33.6276 15.5077 33.9133C14.4923 34.1038 13.3846 34.0086 12.5538 33.3419C12.2769 33.1514 12 32.7704 12 32.4846C12 32.1037 12.1846 31.6274 12.4615 31.4369C12.6462 31.3417 13.1077 31.4369 13.3846 31.5322C13.6615 31.8179 13.9385 32.1989 14.1231 32.5799C14.6769 33.3419 15.4154 33.4371 16.1538 32.8656C16.9846 32.1037 17.4462 31.056 17.7231 30.0083C18.2769 27.7224 18.8308 25.5317 19.2923 23.2458V22.8648L14.4 22.1029L14.5846 20.6742L19.6615 21.4362L20.3077 18.4835L15.0462 17.6263L15.2308 16.1024L20.6769 16.8644C20.8615 16.2929 20.9538 15.8167 21.1385 15.3404C21.6 13.626 22.0615 11.9116 23.1692 10.3877C24.2769 8.86375 25.5692 7.91129 27.5077 8.00654C28.3385 8.00654 29.1692 8.29228 29.7231 8.95899C29.8154 9.05424 30 9.24473 30 9.43522C30 9.81621 30 10.2924 29.7231 10.5782C29.3538 10.8639 28.8923 10.7687 28.5231 10.3877C28.2462 10.1019 28.0615 9.8162 27.7846 9.53047C27.2308 8.7685 26.4 8.67326 25.7538 9.33998C25.2923 9.8162 24.8308 10.4829 24.5538 11.1496C23.9077 13.1498 23.4462 15.2452 22.8 17.3406L27.8769 18.1026L27.5077 19.5313L22.6154 18.7693Z" fill="white"/>
</svg>