<svg xmlns="http://www.w3.org/2000/svg" width="32" height="28" viewBox="0 0 32 28" fill="none">
  <path d="M17.7379 23.5526C17.1986 23.95 16.6784 24.2149 16.0042 24.2149C15.33 24.2149 14.8099 23.95 14.2705 23.5526C13.7311 23.1551 13.5963 22.5117 13.5963 21.8493C13.5963 21.1869 13.866 20.6759 14.2705 20.146C14.8099 19.6161 15.33 19.4836 16.0042 19.4836C16.6784 19.4836 17.1986 19.7486 17.7379 20.146C18.2773 20.6759 18.4121 21.1869 18.4121 21.8493C18.3929 22.5117 18.1232 23.1551 17.7379 23.5526ZM14.2705 7.97702C14.6751 7.44711 15.33 7.31463 16.0042 7.31463C16.6784 7.31463 17.3334 7.57959 17.7379 7.97702C18.1425 8.50693 18.4121 9.01791 18.4121 9.81278C18.4121 10.4752 17.4875 14.9226 17.2178 18.1967H14.9255C14.6558 14.9226 13.5963 10.4752 13.5963 9.81278C13.5963 9.01791 13.866 8.50693 14.2705 7.97702ZM31.3186 23.2876L18.7974 1.95877C17.1986 -0.652923 14.8099 -0.652923 13.211 1.95877L0.689844 23.2876C-0.928279 25.8993 0.420158 28 3.48303 28H28.5254C31.5883 28 32.9175 25.8993 31.3186 23.2876Z" fill="#F74830"/>
</svg>