<svg width="24" height="24" viewBox="0 0 24 24" fill="none" xmlns="http://www.w3.org/2000/svg">
<g id="Group 6">
<g id="Group">
<path id="Subtract" fill-rule="evenodd" clip-rule="evenodd" d="M11.2122 10.7357C9.97405 7.57163 9.90526 5.23295 11.1434 3.71969C12.5214 2.0464 15.3079 1.53511 17.6385 1.45521C18.0947 1.70092 18.5297 1.97355 18.9405 2.27027C19.4595 2.65946 19.9784 3.04865 20.4324 3.56757C22.6378 5.70811 24 8.69189 24 12C24 15.3081 22.6378 18.2919 20.4973 20.4973C18.3568 22.7027 15.3081 24 12 24C11.2698 24 10.5397 23.9239 9.84123 23.7875C10.417 23.5765 10.9348 23.2772 11.4185 22.8418C13.6884 20.7783 13.6196 16.72 11.2122 10.7357ZM4.91205 21.6163C4.65145 21.426 4.39789 21.2258 4.15135 21.0162C1.62162 18.8757 0 15.6324 0 12C0 8.69189 1.36216 5.70811 3.5027 3.5027C5.70811 1.36216 8.69189 0 12 0C12.4261 0 12.8413 0.0218713 13.2456 0.0656138C11.8168 0.517407 10.4582 1.24902 9.42377 2.41279C7.70416 4.54511 7.63537 7.57163 9.21742 11.4923C11.2122 16.4448 11.4873 19.8841 9.97405 21.3285C8.91548 22.3871 6.78589 22.2619 4.91205 21.6163Z" fill="#FFD12C"/>
</g>
</g>
</svg>
