<svg width="48" height="48" viewBox="0 0 48 48" fill="none" xmlns="http://www.w3.org/2000/svg">
<path opacity="0.4" d="M30.137 21.9156C29.9377 22.1149 29.6055 22.1149 29.3398 21.9156L26.018 18.5938C25.8187 18.3945 25.8187 18.0623 26.018 17.7965L29.3398 14.4747C29.5391 14.2754 29.8713 14.2754 30.137 14.4747L33.4588 17.7965C33.6581 17.9958 33.6581 18.328 33.4588 18.5938L30.137 21.9156ZM35.4519 16.9329L31.0671 12.5481C30.3363 11.8173 29.1405 11.8173 28.4097 12.5481L24.0249 16.9329C23.2941 17.6637 23.2941 18.8595 24.0249 19.5903L28.4097 23.9751C29.1405 24.7059 30.3363 24.7059 31.0671 23.9751L35.4519 19.5903C36.1827 18.8595 36.1827 17.6637 35.4519 16.9329ZM33.1266 36H26.483C25.4201 36 24.6228 35.1363 24.6228 34.1398V27.4962C24.6228 26.4332 25.4865 25.636 26.483 25.636H33.1266C34.1896 25.636 34.9869 26.4997 34.9869 27.4962V34.1398C34.9869 35.1363 34.1232 36 33.1266 36ZM20.5702 36H13.9266C12.8637 36 12.0664 35.1363 12.0664 34.1398V27.4962C12.0664 26.4332 12.9301 25.636 13.9266 25.636H20.5702C21.6332 25.636 22.4304 26.4997 22.4304 27.4962V34.1398C22.4304 35.1363 21.6332 36 20.5702 36ZM20.5702 23.4436H13.9266C12.8637 23.4436 12 22.6464 12 21.5834V14.9398C12 13.8768 12.8637 13.0796 13.8602 13.0796H20.5038C21.5668 13.0796 22.364 13.9433 22.364 14.9398V21.5834C22.4305 22.6464 21.6332 23.4436 20.5702 23.4436Z" fill="#181719"/>
</svg>
