<svg width="26" height="23" viewBox="0 0 26 23" fill="none" xmlns="http://www.w3.org/2000/svg">
<g clip-path="url(#clip0_96_739)">
<path d="M23.4076 23H2.59238C1.1437 23 0 21.8103 0 20.3034V2.69655C0 1.18966 1.1437 0 2.59238 0H23.4076C24.8563 0 26 1.18966 26 2.69655V20.3034C26 21.8103 24.8563 23 23.4076 23Z" fill="#181719"/>
<path d="M26 17H17.253C15.994 17 15 15.9655 15 14.6552V9.34483C15 8.03448 15.994 7 17.253 7H26V17Z" fill="#FFD12C"/>
<path d="M18 12C18 13.7143 19.4286 15 21 15C22.7143 15 24 13.5714 24 12C24 10.2857 22.5714 9 21 9C19.4286 9 18 10.2857 18 12Z" fill="black"/>
</g>
<defs>
<clipPath id="clip0_96_739">
<rect width="26" height="23" fill="white"/>
</clipPath>
</defs>
</svg>
