<svg xmlns="http://www.w3.org/2000/svg" width="57" height="59" viewBox="0 0 57 59" fill="none">
  <path d="M29.8717 49.5722C32.4626 49.5722 34.5963 51.701 34.5963 54.2861C34.5963 56.8711 32.4626 59 29.8717 59C27.2807 59 25.1471 56.8711 25.1471 54.2861C25.1471 51.701 27.2807 49.5722 29.8717 49.5722ZM13.2594 42.1211C16.1551 42.1211 18.5936 44.5541 18.5936 47.4433C18.5936 50.3325 16.1551 52.7655 13.2594 52.7655C10.3636 52.7655 7.92513 50.3325 7.92513 47.4433C7.92513 44.4021 10.2112 42.1211 13.2594 42.1211ZM12.1925 30.8686C12.1925 34.2139 9.4492 36.951 6.09626 36.951C2.74332 36.951 0 34.2139 0 30.8686C0 27.5232 2.74332 24.7861 6.09626 24.7861C9.4492 24.7861 12.1925 27.5232 12.1925 30.8686ZM13.2594 20.8325C9.6016 20.8325 6.70588 17.9433 6.70588 14.2938C6.70588 10.6443 9.6016 7.75515 13.2594 7.75515C16.9171 7.75515 19.8128 10.6443 19.8128 14.2938C19.8128 17.9433 16.7647 20.8325 13.2594 20.8325ZM29.7192 14.5979C25.7567 14.5979 22.4037 11.4046 22.4037 7.29897C22.4037 3.34536 25.6043 0 29.7192 0C33.6818 0 37.0348 3.1933 37.0348 7.29897C37.0348 11.2526 33.6818 14.5979 29.7192 14.5979ZM46.484 43.0335C48.7701 43.0335 50.7513 44.8582 50.7513 47.2912C50.7513 49.5722 48.9225 51.549 46.484 51.549C44.1979 51.549 42.2166 49.7242 42.2166 47.2912C42.2166 44.8582 44.0455 43.0335 46.484 43.0335ZM46.484 17.183C44.8075 17.183 43.4358 15.8144 43.4358 14.1418C43.4358 12.4691 44.8075 11.1005 46.484 11.1005C48.1604 11.1005 49.5321 12.4691 49.5321 14.1418C49.5321 15.8144 48.1604 17.183 46.484 17.183ZM53.3422 34.518C51.361 34.518 49.6845 32.8454 49.6845 30.8686C49.6845 28.8918 51.361 27.2191 53.3422 27.2191C55.3235 27.2191 57 28.8918 57 30.8686C57 32.8454 55.4759 34.518 53.3422 34.518Z" fill="black"/>
</svg>