<svg xmlns="http://www.w3.org/2000/svg" width="62" height="62" viewBox="0 0 62 62" fill="none">
  <rect width="62" height="62" rx="20" fill="#181719"/>
  <path fill-rule="evenodd" clip-rule="evenodd" d="M29.7273 28.9587C27.7282 23.85 27.6172 20.0741 29.6162 17.6308C31.8413 14.9289 36.3407 14.1035 40.1039 13.9745C40.8405 14.3713 41.5427 14.8115 42.2061 15.2905C43.0439 15.9189 43.8818 16.5473 44.6149 17.3851C48.1757 20.8412 50.375 25.6588 50.375 31C50.375 36.3412 48.1757 41.1588 44.7196 44.7196C41.2635 48.2804 36.3412 50.375 31 50.375C29.8209 50.375 28.6419 50.2521 27.5141 50.0319C28.4435 49.6912 29.2795 49.2079 30.0605 48.505C33.7254 45.1733 33.6143 38.6208 29.7273 28.9587ZM19.5566 46.5269C19.1356 46.2194 18.726 45.896 18.3277 45.5575C14.2432 42.1014 11.625 36.8649 11.625 31C11.625 25.6588 13.8243 20.8412 17.2804 17.2804C20.8412 13.8243 25.6588 11.625 31 11.625C31.6879 11.625 32.3581 11.6603 33.0106 11.7309C30.7036 12.4603 28.51 13.6416 26.8398 15.5207C24.0633 18.9635 23.9522 23.85 26.5066 30.1804C29.7273 38.1766 30.1715 43.7295 27.7282 46.0617C26.0194 47.7706 22.5817 47.5688 19.5566 46.5269Z" fill="#FFD12C"/>
</svg>