<svg xmlns="http://www.w3.org/2000/svg" width="74" height="74" viewBox="0 0 74 74" fill="none">
  <rect x="0.5" y="0.5" width="73" height="73" rx="23.5" fill="white" fill-opacity="0.1" stroke="url(#paint0_linear_11_2157)"/>
  <path fill-rule="evenodd" clip-rule="evenodd" d="M35.481 34.5637C33.095 28.4662 32.9625 23.9594 35.3484 21.0432C38.0041 17.8184 43.3744 16.8332 47.866 16.6793C48.7451 17.1528 49.5833 17.6782 50.375 18.25C51.375 19 52.375 19.75 53.25 20.75C57.5 24.875 60.125 30.625 60.125 37C60.125 43.375 57.5 49.125 53.375 53.375C49.25 57.625 43.375 60.125 37 60.125C35.5928 60.125 34.1855 59.9783 32.8394 59.7155C33.9488 59.3088 34.9465 58.7321 35.8786 57.8931C40.2529 53.9165 40.1203 46.0958 35.481 34.5637ZM23.3418 55.5321C22.8393 55.1651 22.3504 54.7791 21.875 54.375C17 50.25 13.875 44 13.875 37C13.875 30.625 16.5 24.875 20.625 20.625C24.875 16.5 30.625 13.875 37 13.875C37.821 13.875 38.621 13.9171 39.3998 14.0014C36.6463 14.872 34.0281 16.2819 32.0346 18.5247C28.7207 22.6338 28.5882 28.4662 31.6369 36.0218C35.481 45.5656 36.0112 52.1933 33.095 54.9769C31.0554 57.0166 26.9524 56.7757 23.3418 55.5321Z" fill="#FFD12C"/>
  <defs>
    <linearGradient id="paint0_linear_11_2157" x1="37" y1="0" x2="37" y2="74" gradientUnits="userSpaceOnUse">
      <stop stop-color="white" stop-opacity="0.7"/>
      <stop offset="1" stop-color="white" stop-opacity="0"/>
    </linearGradient>
  </defs>
</svg>