<svg xmlns="http://www.w3.org/2000/svg" width="20" height="20" viewBox="0 0 20 20" fill="none">
  <mask id="mask0_17_18" style="mask-type:luminance" maskUnits="userSpaceOnUse" x="0" y="0" width="20" height="20">
    <path d="M13.2727 2.31818L13.3182 2.40909C14.2727 4.09091 14.8636 6.45455 14.9545 9.13636H18.2727C18 6.09091 16 3.5 13.2727 2.31818ZM10 1.68182H9.95455C8.40909 1.77273 6.86364 5 6.68182 9.18182H13.3182C13.1364 4.90909 11.5455 1.68182 10 1.68182ZM6.72727 2.31818L6.63636 2.36364C3.95455 3.54545 2 6.09091 1.72727 9.13636H5C5.13636 6.45455 5.72727 4 6.72727 2.31818ZM18.2727 10.8182H15C14.9091 13.5455 14.2727 15.9545 13.2727 17.6364C16 16.5 18 13.9091 18.2727 10.8182ZM5 10.8182H1.68182C2 13.9091 3.95455 16.5 6.68182 17.6364C5.72727 16 5.13636 13.5455 5 10.8182ZM13.3182 10.8182H6.68182C6.86364 15.0909 8.45455 18.3182 10 18.3182C11.5455 18.3182 13.1364 15.0909 13.3182 10.8182ZM10 0C15.5455 0 20 4.45455 20 10C20 15.5455 15.5455 20 10 20C4.45455 20 0 15.5455 0 10C0 4.45455 4.45455 0 10 0Z" fill="white"/>
  </mask>
  <g mask="url(#mask0_17_18)">
    <path d="M22.2728 -2.27273H-2.27271V22.2727H22.2728V-2.27273Z" fill="black"/>
  </g>
</svg>