<svg xmlns="http://www.w3.org/2000/svg" width="48" height="48" viewBox="0 0 48 48" fill="none">
  <path d="M24 27C25.6569 27 27 25.6569 27 24C27 22.3431 25.6569 21 24 21C22.3431 21 21 22.3431 21 24C21 25.6569 22.3431 27 24 27Z" fill="#FFD12C"/>
  <path d="M23.9914 28.971C21.318 28.971 19.0797 26.7546 19.0797 23.9683C19.0797 21.1821 21.2558 18.9657 23.9914 18.9657C26.727 18.9657 28.903 21.1821 28.903 23.9683C28.8409 26.7546 26.6648 28.971 23.9914 28.971ZM35.1825 23.8417L32.6956 22.2586C32.6956 22.2586 32.6956 22.2586 32.6956 22.1953V22.1319L34.3121 19.5989C34.6851 19.029 34.6229 18.2691 34.2499 17.7625L32.5091 15.5462C32.0739 15.0396 31.39 14.7863 30.7682 15.0396L27.9705 16.0528C27.9705 16.0528 27.9705 16.0528 27.9083 16.0528C27.9083 16.0528 27.9083 16.0528 27.9083 15.9894L26.9135 13.0765C26.727 12.4433 26.1053 12 25.4214 12H22.5614C21.8775 12 21.318 12.4433 21.0693 13.0765L20.1367 15.9261C20.1367 15.9261 20.1367 15.9261 20.1367 15.9894H20.0745L17.2767 14.9763C16.655 14.723 15.9711 14.9763 15.5359 15.4828L13.7951 17.7625C13.3599 18.2691 13.3599 19.029 13.6707 19.5989L15.2872 22.1319C15.2872 22.1319 15.2872 22.1319 15.2872 22.1953C15.2872 22.1953 15.2872 22.1953 15.2872 22.2586L12.7381 23.8417C12.1786 24.2216 11.8677 24.8549 12.0542 25.5515L12.676 28.3377C12.8003 28.971 13.3599 29.4776 14.0438 29.5409L16.9659 29.8575C16.9659 29.8575 16.9659 29.8575 17.028 29.8575V29.9208L16.655 32.8971C16.5307 33.5937 16.9037 34.2269 17.5254 34.5435L20.0745 35.81C20.6962 36.1266 21.3801 36 21.8775 35.4934L23.9292 33.3404C23.9292 33.3404 23.9292 33.3404 23.9914 33.3404H24.0536L26.1053 35.4934C26.4161 35.81 26.7892 36 27.2244 36C27.4731 36 27.6596 35.9367 27.9083 35.8734L30.4574 34.6702C31.0791 34.3536 31.39 33.7203 31.3278 33.0237L30.9547 30.0475C30.9547 30.0475 30.9547 30.0475 30.9547 29.9842H31.0169L34.0012 29.6675C34.6851 29.6042 35.2447 29.0976 35.369 28.4644L35.9907 25.6781C36.0529 24.9182 35.8042 24.2216 35.1825 23.8417Z" fill="#181719"/>
</svg>