<svg xmlns="http://www.w3.org/2000/svg" width="52" height="52" viewBox="0 0 52 52" fill="none">
  <rect width="52" height="52" rx="16" fill="#181719"/>
  <path d="M39.0902 14.4336C39.0902 14.5152 39.1037 14.5016 39.0633 14.6512V14.6648L34.5125 38.1746C34.4991 38.2018 34.4587 38.2834 34.3644 38.3514C34.2702 38.4331 34.1894 38.4739 33.799 38.3106L26.542 32.6781L22.1662 36.7324L23.0818 30.787L34.9434 19.6171C35.4281 19.1545 35.2665 19.0593 35.2665 19.0593C35.3069 18.5015 34.526 18.896 34.526 18.896L19.5812 28.2564V28.2292L12.405 25.7939H12.3915C12.405 25.7939 12.4184 25.7803 12.4319 25.7803L12.4723 25.7667L12.5127 25.7531C12.5127 25.7531 18.9214 23.032 25.4245 20.2566C28.6827 18.8688 31.9679 17.4675 34.4856 16.3927C37.0168 15.3179 38.8748 14.5288 38.9825 14.488C39.0768 14.4336 39.0229 14.4336 39.0902 14.4336ZM39.2249 11.8894C38.8344 11.9166 38.444 12.0118 38.0804 12.1615C37.7304 12.2975 36.0609 13.005 33.5297 14.0798L24.4551 17.9437C17.9386 20.7191 11.5433 23.4402 11.5433 23.4402L11.6241 23.413C11.6241 23.413 11.1797 23.5626 10.722 23.8755C10.4392 24.0524 10.1969 24.2973 10.0084 24.583C9.77951 24.9231 9.60448 25.4265 9.6718 25.9571C9.77951 26.8551 10.3585 27.3857 10.7758 27.685C11.1932 27.9843 11.5971 28.1204 11.5971 28.1204H11.6106L17.6155 30.1611C17.8847 31.0319 19.4465 36.2154 19.8235 37.4127C20.0389 38.1202 20.2544 38.5691 20.5236 38.9093C20.6583 39.0861 20.8064 39.2222 20.9949 39.3446C21.0891 39.399 21.1968 39.4399 21.2911 39.4807L21.2238 39.4671C21.2372 39.4671 21.2507 39.4807 21.2641 39.4943C21.318 39.5079 21.3449 39.5079 21.4122 39.5215C22.3682 39.8072 23.1221 39.2222 23.1221 39.2222L23.1625 39.1814L26.7035 35.9161L32.6411 40.5147L32.7757 40.5691C34.0144 41.1133 35.2665 40.814 35.9262 40.2698C36.5994 39.7256 36.8552 39.0317 36.8552 39.0317L36.8956 38.9229L41.4868 15.1682C41.6214 14.5832 41.6484 14.039 41.5003 13.4948C41.3521 12.9506 41.0156 12.488 40.5443 12.1887C40.1404 11.9846 39.6826 11.8622 39.2249 11.8894Z" fill="white"/>
</svg>