<svg xmlns="http://www.w3.org/2000/svg" width="52" height="52" viewBox="0 0 52 52" fill="none">
  <rect width="52" height="52" rx="16" fill="#181719"/>
  <path d="M35.8508 37.2717C35.7892 37.1844 35.7399 37.1221 35.703 37.0597C32.9308 33.3441 30.1587 29.6284 27.3743 25.9128C24.5776 22.1722 21.7808 18.4191 18.9841 14.6785C18.9225 14.5912 18.8485 14.5538 18.7377 14.5538C17.8999 14.5538 17.0621 14.5538 16.2243 14.5538C16.175 14.5538 16.138 14.5538 16.0641 14.5663C16.1134 14.6411 16.1627 14.691 16.1996 14.7409C17.0867 15.9129 17.9615 17.0725 18.8485 18.2446C23.6166 24.5412 28.3723 30.8503 33.1403 37.147C33.2019 37.2343 33.2635 37.2592 33.3621 37.2592C34.1259 37.2592 34.9021 37.2592 35.666 37.2592H35.8508V37.2717ZM24.442 30.2643C23.7644 31.0498 23.0991 31.8104 22.4338 32.5835C20.4502 34.8777 18.4666 37.1719 16.483 39.4662C16.3105 39.6657 16.138 39.8776 15.9532 40.0771C15.9163 40.1145 15.8547 40.1519 15.8054 40.1519C14.2777 40.1519 12.7499 40.1519 11.2345 40.1519C11.2222 40.1519 11.1975 40.1519 11.1606 40.1395C14.8567 35.8627 18.5405 31.5985 22.2367 27.3342C18.3311 22.1722 14.4378 17.0226 10.5322 11.8481H10.717C13.8588 11.8481 17.0128 11.8481 20.1668 11.8481C20.2777 11.8481 20.3516 11.8856 20.4132 11.9728C22.6063 14.903 24.7993 17.8331 26.9801 20.7632C27.0047 20.8006 27.0417 20.838 27.0786 20.8879C27.2881 20.651 27.4852 20.4266 27.6823 20.2021C30.0479 17.459 32.4257 14.7159 34.7912 11.9728C34.8652 11.8856 34.9391 11.8481 35.0623 11.8481C36.5284 11.8481 37.9946 11.8481 39.4607 11.8481H39.6455L29.284 23.8305C33.3374 29.2544 37.3909 34.6907 41.4689 40.1395H41.2718C38.2163 40.1395 35.1609 40.1395 32.1054 40.1395C31.9698 40.1395 31.8959 40.1021 31.8097 39.9898C29.3949 36.7979 26.9801 33.5934 24.5652 30.4015C24.5283 30.3765 24.4913 30.3267 24.442 30.2643Z" fill="white"/>
</svg>