<svg xmlns="http://www.w3.org/2000/svg" width="42" height="42" viewBox="0 0 42 42" fill="none">
  <circle opacity="0.1" cx="21" cy="21" r="21" fill="white"/>
  <g opacity="0.4">
    <path d="M15.6351 18.7727L21.0319 13.3L26.4287 18.7091L29.6033 15.5273L21.0319 7L12.4604 15.5909L15.6351 18.7727Z" fill="white"/>
    <path d="M13.3492 21L10.1746 17.8182L7 21L10.1746 24.1818L13.3492 21Z" fill="white"/>
    <path d="M15.6351 23.2273L21.0319 28.6364L26.4287 23.2273L29.6033 26.4091L21.0319 35L12.4604 26.4091L15.6351 23.2273Z" fill="white"/>
    <path d="M31.8255 24.1818L35.0001 21L31.8255 17.8182L28.6509 21L31.8255 24.1818Z" fill="white"/>
    <path d="M24.2061 21L21.0315 17.8182L18.6823 20.1727L18.4284 20.4273L17.8569 21L21.0315 24.1818L24.2061 21Z" fill="white"/>
  </g>
</svg>