<svg xmlns="http://www.w3.org/2000/svg" width="42" height="42" viewBox="0 0 42 42" fill="none">
  <circle opacity="0.1" cx="21" cy="21" r="21" fill="white"/>
  <g opacity="0.4">
    <path fill-rule="evenodd" clip-rule="evenodd" d="M20.1462 19.6303C18.8049 16.2026 18.7304 13.669 20.0717 12.0297C21.5646 10.2169 24.5835 9.66299 27.1084 9.57646C27.6026 9.84264 28.0738 10.138 28.5189 10.4595C29.0811 10.8811 29.6432 11.3027 30.1351 11.8649C32.5243 14.1838 34 17.4162 34 21C34 24.5838 32.5243 27.8162 30.2054 30.2054C27.8865 32.5946 24.5838 34 21 34C20.2089 34 19.4178 33.9175 18.6611 33.7698C19.2848 33.5412 19.8457 33.2169 20.3698 32.7453C22.8288 30.5098 22.7543 26.1133 20.1462 19.6303ZM13.3216 31.4179C13.0392 31.2116 12.7645 30.9947 12.4973 30.7676C9.75676 28.4486 8 24.9351 8 21C8 17.4162 9.47568 14.1838 11.7946 11.7946C14.1838 9.47568 17.4162 8 21 8C21.4616 8 21.9113 8.02368 22.3491 8.07105C20.8012 8.56049 19.3294 9.35308 18.2088 10.6138C16.3459 12.9239 16.2713 16.2026 17.9852 20.45C20.1462 25.8152 20.4443 29.5411 18.8049 31.1059C17.6582 32.2526 15.3515 32.1171 13.3216 31.4179Z" fill="white"/>
  </g>
</svg>