<svg xmlns="http://www.w3.org/2000/svg" width="42" height="42" viewBox="0 0 42 42" fill="none">
  <circle cx="21" cy="21" r="21" fill="#0C0E11"/>
  <path fill-rule="evenodd" clip-rule="evenodd" d="M20.1463 19.6304C18.805 16.2026 18.7305 13.669 20.0718 12.0297C21.5646 10.2169 24.5835 9.66301 27.1084 9.57647C27.6026 9.84266 28.0738 10.138 28.5189 10.4595C29.0811 10.8811 29.6432 11.3027 30.1351 11.8649C32.5243 14.1838 34 17.4162 34 21C34 24.5838 32.5243 27.8162 30.2054 30.2054C27.8865 32.5946 24.5838 34 21 34C20.2089 34 19.4179 33.9175 18.6612 33.7698C19.2849 33.5412 19.8458 33.2169 20.3698 32.7453C22.8289 30.5098 22.7544 26.1133 20.1463 19.6304ZM13.3216 31.4179C13.0392 31.2116 12.7644 30.9946 12.4973 30.7676C9.75676 28.4486 8 24.9351 8 21C8 17.4162 9.47568 14.1838 11.7946 11.7946C14.1838 9.47568 17.4162 8 21 8C21.4616 8 21.9113 8.02369 22.3492 8.07106C20.8013 8.5605 19.3295 9.35309 18.2088 10.6139C16.3459 12.9239 16.2714 16.2026 17.9853 20.45C20.1463 25.8152 20.4443 29.5411 18.805 31.1059C17.6583 32.2526 15.3515 32.1171 13.3216 31.4179Z" fill="#FFD12C"/>
</svg>